<?xml version="1.0" encoding="UTF-8"?>
<svg version="1.1" xmlns="http://www.w3.org/2000/svg" width="1192" height="80">
<path d="M0 0 C393.36 0 786.72 0 1192 0 C1192 26.4 1192 52.8 1192 80 C798.64 80 405.28 80 0 80 C0 53.6 0 27.2 0 0 Z " fill="#1F1F1F" transform="translate(0,0)"/>
<path d="M0 0 C3.80566975 1.17629792 4.49111486 1.73163256 6.4375 5.0625 C7.24721291 9.61439962 7.26994866 13.71777525 4.8125 17.6875 C1.70845134 19.48458081 -0.02906253 19.65140625 -3.5625 19.0625 C-5.9375 17.6875 -5.9375 17.6875 -7.5625 15.0625 C-8.36732022 10.19251645 -8.181811 6.32589444 -6 1.875 C-3.5625 0.0625 -3.5625 0.0625 0 0 Z " fill="#28B2CA" transform="translate(112.5625,2.9375)"/>
<path d="M0 0 C3.80566975 1.17629792 4.49111486 1.73163256 6.4375 5.0625 C7.24721291 9.61439962 7.26994866 13.71777525 4.8125 17.6875 C1.70845134 19.48458081 -0.02906253 19.65140625 -3.5625 19.0625 C-5.9375 17.6875 -5.9375 17.6875 -7.5625 15.0625 C-8.36732022 10.19251645 -8.181811 6.32589444 -6 1.875 C-3.5625 0.0625 -3.5625 0.0625 0 0 Z " fill="#28B2CA" transform="translate(96.5625,2.9375)"/>
<path d="M0 0 C1.60875 -0.04125 3.2175 -0.0825 4.875 -0.125 C5.77992187 -0.14820313 6.68484375 -0.17140625 7.6171875 -0.1953125 C10 0 10 0 12 2 C11.625 4.5 11.625 4.5 11 7 C11 7.66 11 8.32 11 9 C11.66 9.66 12.32 10.32 13 11 C12.8125 13.5 12.8125 13.5 12 16 C9 18 9 18 0 18 C0 12.06 0 6.12 0 0 Z " fill="#29B7D0" transform="translate(74,56)"/>
<path d="M0 0 C1.60875 -0.04125 3.2175 -0.0825 4.875 -0.125 C5.77992187 -0.14820312 6.68484375 -0.17140625 7.6171875 -0.1953125 C10 0 10 0 12 2 C11.625 4.5 11.625 4.5 11 7 C11 7.66 11 8.32 11 9 C11.66 9.66 12.32 10.32 13 11 C12.8125 13.5 12.8125 13.5 12 16 C9 18 9 18 0 18 C0 12.06 0 6.12 0 0 Z " fill="#29B7D0" transform="translate(74,30)"/>
<path d="M0 0 C1.588125 -0.061875 3.17625 -0.12375 4.8125 -0.1875 C6.15248047 -0.23970703 6.15248047 -0.23970703 7.51953125 -0.29296875 C10 0 10 0 11.83984375 1.328125 C13 3 13 3 12.75 5.9375 C12 9 12 9 11.3125 11.0625 C10.8716356 13.79585931 11.84076717 15.54515402 13 18 C11.68 18 10.36 18 9 18 C8.34 15.69 7.68 13.38 7 11 C5.68 11 4.36 11 3 11 C3 13.31 3 15.62 3 18 C2.01 18 1.02 18 0 18 C0 12.06 0 6.12 0 0 Z " fill="#29BBD4" transform="translate(106,30)"/>
<path d="M0 0 C1.65 0.33 3.3 0.66 5 1 C5.67364661 3.08108685 6.33866798 5.1649671 7 7.25 C7.37125 8.41015625 7.7425 9.5703125 8.125 10.765625 C9 14 9 14 9 18 C8.01 18 7.02 18 6 18 C5.67 16.35 5.34 14.7 5 13 C3.02 13 1.04 13 -1 13 C-1.33 14.65 -1.66 16.3 -2 18 C-2.99 18 -3.98 18 -5 18 C-3.9007105 11.68878497 -2.41862058 5.93661416 0 0 Z " fill="#29B5CE" transform="translate(94,56)"/>
<path d="M0 0 C1.65 0.33 3.3 0.66 5 1 C5.67364661 3.08108685 6.33866798 5.1649671 7 7.25 C7.37125 8.41015625 7.7425 9.5703125 8.125 10.765625 C9 14 9 14 9 18 C8.01 18 7.02 18 6 18 C5.67 16.35 5.34 14.7 5 13 C3.02 13 1.04 13 -1 13 C-1.33 14.65 -1.66 16.3 -2 18 C-2.99 18 -3.98 18 -5 18 C-3.9007105 11.68878497 -2.41862058 5.93661416 0 0 Z " fill="#29B5CE" transform="translate(94,30)"/>
<path d="M0 0 C6.46153846 0.46153846 6.46153846 0.46153846 9 3 C8.625 5.5 8.625 5.5 8 8 C8 8.66 8 9.32 8 10 C8.66 10.66 9.32 11.32 10 12 C9.67028521 15.29714793 9.3773161 16.6226839 7 19 C5.125 19.265625 5.125 19.265625 3 19.25 C1.948125 19.25773437 1.948125 19.25773437 0.875 19.265625 C-1 19 -1 19 -3 17 C-3 16.01 -3 15.02 -3 14 C-2.01 14 -1.02 14 0 14 C0.33 14.66 0.66 15.32 1 16 C2.32 16 3.64 16 5 16 C5 14.68 5 13.36 5 12 C3.68 11.67 2.36 11.34 1 11 C1 10.01 1 9.02 1 8 C2.32 7.67 3.64 7.34 5 7 C5 6.01 5 5.02 5 4 C3.68 4 2.36 4 1 4 C0.67 4.66 0.34 5.32 0 6 C-0.99 6 -1.98 6 -3 6 C-2.42655063 3.13275314 -2.1385485 2.1385485 0 0 Z " fill="#DC9567" transform="translate(141,55)"/>
<path d="M0 0 C6.46153846 0.46153846 6.46153846 0.46153846 9 3 C9.5 5.1875 9.5 5.1875 9 8 C7.19657349 10.52689412 5.15750549 12.77186189 3 15 C5.97 15.495 5.97 15.495 9 16 C9 16.99 9 17.98 9 19 C5.04 19 1.08 19 -3 19 C-1.80342548 14.21370192 -0.05967102 12.93612727 3.50390625 9.78125 C5.42876847 7.87720595 5.42876847 7.87720595 5 4 C3.68 4 2.36 4 1 4 C0.67 4.66 0.34 5.32 0 6 C-0.99 6 -1.98 6 -3 6 C-2.42655063 3.13275314 -2.1385485 2.1385485 0 0 Z " fill="#D79365" transform="translate(141,29)"/>
<path d="M0 0 C3.96 0 7.92 0 12 0 C11.09353725 4.53231376 10.45887001 6.21820658 7.9375 9.8125 C7.11572266 10.99779297 7.11572266 10.99779297 6.27734375 12.20703125 C5.85582031 12.79871094 5.43429688 13.39039062 5 14 C7.64 14.33 10.28 14.66 13 15 C13 15.99 13 16.98 13 18 C8.71 18 4.42 18 0 18 C0.95159442 13.24202791 1.95750318 11.11867702 4.5625 7.1875 C5.20316406 6.21167969 5.84382813 5.23585938 6.50390625 4.23046875 C6.99761719 3.49441406 7.49132812 2.75835937 8 2 C5.36 2 2.72 2 0 2 C0 1.34 0 0.68 0 0 Z " fill="#28A8BF" transform="translate(106,56)"/>
<path d="M0 0 C0 4.95 0 9.9 0 15 C1.65 15 3.3 15 5 15 C5 15.99 5 16.98 5 18 C0.71 18 -3.58 18 -8 18 C-8 17.01 -8 16.02 -8 15 C-6.35 15 -4.7 15 -3 15 C-3.33 11.37 -3.66 7.74 -4 4 C-5.98 4.99 -5.98 4.99 -8 6 C-7.6875 4.125 -7.6875 4.125 -7 2 C-4 0 -4 0 0 0 Z " fill="#DE9768" transform="translate(146,4)"/>
<path d="M0 0 C3.96 1.98 7.92 3.96 12 6 C11 11 11 11 9.2578125 12.36328125 C8.55398437 12.67652344 7.85015625 12.98976563 7.125 13.3125 C6.42632812 13.63863281 5.72765625 13.96476562 5.0078125 14.30078125 C3 15 3 15 0 15 C0.1875 12.625 0.1875 12.625 1 10 C3.5625 8.6875 3.5625 8.6875 6 8 C4.02 7.01 2.04 6.02 0 5 C0 3.35 0 1.7 0 0 Z " fill="#6965E5" transform="translate(42,58)"/>
<path d="M0 0 C3.96 1.98 7.92 3.96 12 6 C11 11 11 11 9.2578125 12.36328125 C8.55398437 12.67652344 7.85015625 12.98976563 7.125 13.3125 C6.42632812 13.63863281 5.72765625 13.96476562 5.0078125 14.30078125 C3 15 3 15 0 15 C0.1875 12.625 0.1875 12.625 1 10 C3.5625 8.6875 3.5625 8.6875 6 8 C4.02 7.01 2.04 6.02 0 5 C0 3.35 0 1.7 0 0 Z " fill="#6965E5" transform="translate(42,32)"/>
<path d="M0 0 C3.96 1.98 7.92 3.96 12 6 C11 11 11 11 9.2578125 12.36328125 C8.55398437 12.67652344 7.85015625 12.98976563 7.125 13.3125 C6.42632812 13.63863281 5.72765625 13.96476562 5.0078125 14.30078125 C3 15 3 15 0 15 C0.1875 12.625 0.1875 12.625 1 10 C3.5625 8.6875 3.5625 8.6875 6 8 C4.02 7.01 2.04 6.02 0 5 C0 3.35 0 1.7 0 0 Z " fill="#6965E5" transform="translate(42,6)"/>
<path d="M0 0 C2.4375 0.375 2.4375 0.375 5 1 C6.12256131 3.24512262 6.13413762 4.51456649 6.125 7 C6.12757812 7.70125 6.13015625 8.4025 6.1328125 9.125 C6 11 6 11 5 13 C2.625 13.125 2.625 13.125 0 13 C-2.60704898 10.39295102 -2.23905333 8.52661759 -2.265625 4.97265625 C-2 3 -2 3 0 0 Z " fill="#1F2A2C" transform="translate(110,6)"/>
<path d="M0 0 C2.4375 0.375 2.4375 0.375 5 1 C6.12256131 3.24512262 6.13413762 4.51456649 6.125 7 C6.12757812 7.70125 6.13015625 8.4025 6.1328125 9.125 C6 11 6 11 5 13 C2.625 13.125 2.625 13.125 0 13 C-2.60704898 10.39295102 -2.23905333 8.52661759 -2.265625 4.97265625 C-2 3 -2 3 0 0 Z " fill="#1F2A2C" transform="translate(94,6)"/>
<path d="M0 0 C3.63 0 7.26 0 11 0 C11 0.66 11 1.32 11 2 C8.36 2 5.72 2 3 2 C3 3.98 3 5.96 3 8 C5.31 8 7.62 8 10 8 C10 8.66 10 9.32 10 10 C7.69 10 5.38 10 3 10 C3 12.64 3 15.28 3 18 C2.01 18 1.02 18 0 18 C0 12.06 0 6.12 0 0 Z " fill="#2AC3DE" transform="translate(75,4)"/>
<path d="M0 0 C4.62 0 9.24 0 14 0 C14 1.65 14 3.3 14 5 C9.38 5 4.76 5 0 5 C0 3.35 0 1.7 0 0 Z " fill="#605DCC" transform="translate(25,67)"/>
<path d="M0 0 C4.62 0 9.24 0 14 0 C14 1.65 14 3.3 14 5 C9.38 5 4.76 5 0 5 C0 3.35 0 1.7 0 0 Z " fill="#605DCC" transform="translate(9,67)"/>
<path d="M0 0 C4.62 0 9.24 0 14 0 C14 1.65 14 3.3 14 5 C9.38 5 4.76 5 0 5 C0 3.35 0 1.7 0 0 Z " fill="#605CCC" transform="translate(25,60)"/>
<path d="M0 0 C4.62 0 9.24 0 14 0 C14 1.65 14 3.3 14 5 C9.38 5 4.76 5 0 5 C0 3.35 0 1.7 0 0 Z " fill="#605CCC" transform="translate(9,60)"/>
<path d="M0 0 C4.62 0 9.24 0 14 0 C14 1.65 14 3.3 14 5 C9.38 5 4.76 5 0 5 C0 3.35 0 1.7 0 0 Z " fill="#605DCC" transform="translate(25,41)"/>
<path d="M0 0 C4.62 0 9.24 0 14 0 C14 1.65 14 3.3 14 5 C9.38 5 4.76 5 0 5 C0 3.35 0 1.7 0 0 Z " fill="#605DCC" transform="translate(9,41)"/>
<path d="M0 0 C4.62 0 9.24 0 14 0 C14 1.65 14 3.3 14 5 C9.38 5 4.76 5 0 5 C0 3.35 0 1.7 0 0 Z " fill="#605CCC" transform="translate(25,34)"/>
<path d="M0 0 C4.62 0 9.24 0 14 0 C14 1.65 14 3.3 14 5 C9.38 5 4.76 5 0 5 C0 3.35 0 1.7 0 0 Z " fill="#605CCC" transform="translate(9,34)"/>
<path d="M0 0 C4.62 0 9.24 0 14 0 C14 1.65 14 3.3 14 5 C9.38 5 4.76 5 0 5 C0 3.35 0 1.7 0 0 Z " fill="#605DCC" transform="translate(25,15)"/>
<path d="M0 0 C4.62 0 9.24 0 14 0 C14 1.65 14 3.3 14 5 C9.38 5 4.76 5 0 5 C0 3.35 0 1.7 0 0 Z " fill="#605DCC" transform="translate(9,15)"/>
<path d="M0 0 C4.62 0 9.24 0 14 0 C14 1.65 14 3.3 14 5 C9.38 5 4.76 5 0 5 C0 3.35 0 1.7 0 0 Z " fill="#605CCC" transform="translate(25,8)"/>
<path d="M0 0 C4.62 0 9.24 0 14 0 C14 1.65 14 3.3 14 5 C9.38 5 4.76 5 0 5 C0 3.35 0 1.7 0 0 Z " fill="#605CCC" transform="translate(9,8)"/>
<path d="M0 0 C4.62 0 9.24 0 14 0 C14 1.32 14 2.64 14 4 C9.38 4 4.76 4 0 4 C0 2.68 0 1.36 0 0 Z " fill="#787878" transform="translate(121,67)"/>
<path d="M0 0 C4.62 0 9.24 0 14 0 C14 1.32 14 2.64 14 4 C9.38 4 4.76 4 0 4 C0 2.68 0 1.36 0 0 Z " fill="#787878" transform="translate(121,41)"/>
<path d="M0 0 C4.62 0 9.24 0 14 0 C14 1.32 14 2.64 14 4 C9.38 4 4.76 4 0 4 C0 2.68 0 1.36 0 0 Z " fill="#787878" transform="translate(121,15)"/>
<path d="M0 0 C1.65 0.33 3.3 0.66 5 1 C5 1.99 5 2.98 5 4 C4.34 4 3.68 4 3 4 C3.33 6.31 3.66 8.62 4 11 C2.68 11 1.36 11 0 11 C-2.21538462 5.70769231 -2.21538462 5.70769231 -1.125 2.125 C-0.75375 1.42375 -0.3825 0.7225 0 0 Z " fill="#28ADC5" transform="translate(94,56)"/>
<path d="M0 0 C1.65 0.33 3.3 0.66 5 1 C5 1.99 5 2.98 5 4 C4.34 4 3.68 4 3 4 C3.33 6.31 3.66 8.62 4 11 C2.68 11 1.36 11 0 11 C-2.21538462 5.70769231 -2.21538462 5.70769231 -1.125 2.125 C-0.75375 1.42375 -0.3825 0.7225 0 0 Z " fill="#28ADC5" transform="translate(94,30)"/>
<path d="M0 0 C4.62 0 9.24 0 14 0 C14 0.99 14 1.98 14 3 C9.38 3 4.76 3 0 3 C0 2.01 0 1.02 0 0 Z " fill="#8D8D8D" transform="translate(121,61)"/>
<path d="M0 0 C4.62 0 9.24 0 14 0 C14 0.99 14 1.98 14 3 C9.38 3 4.76 3 0 3 C0 2.01 0 1.02 0 0 Z " fill="#8D8D8D" transform="translate(121,35)"/>
<path d="M0 0 C4.62 0 9.24 0 14 0 C14 0.99 14 1.98 14 3 C9.38 3 4.76 3 0 3 C0 2.01 0 1.02 0 0 Z " fill="#8D8D8D" transform="translate(121,9)"/>
<path d="M0 0 C1.66611905 -0.042721 3.33382885 -0.04063832 5 0 C6 1 6 1 6.125 3.5 C6 6 6 6 5 7 C3.33382885 7.04063832 1.66611905 7.042721 0 7 C0 4.69 0 2.38 0 0 Z " fill="#203134" transform="translate(109,32)"/>
<path d="M0 0 C3.96 0 7.92 0 12 0 C11.67 1.65 11.34 3.3 11 5 C9.68 5.33 8.36 5.66 7 6 C7.33 4.68 7.66 3.36 8 2 C5.36 2 2.72 2 0 2 C0 1.34 0 0.68 0 0 Z " fill="#29BDD7" transform="translate(106,56)"/>
<path d="M0 0 C1.98 0 3.96 0 6 0 C6.5625 1.9375 6.5625 1.9375 7 4 C6 5 6 5 2.9375 5.0625 C1.4834375 5.0315625 1.4834375 5.0315625 0 5 C0 3.35 0 1.7 0 0 Z " fill="#1F292B" transform="translate(77,66)"/>
<path d="M0 0 C0.66 0 1.32 0 2 0 C2 0.66 2 1.32 2 2 C3.32 2.66 4.64 3.32 6 4 C5.67 5.65 5.34 7.3 5 9 C3.35 9.33 1.7 9.66 0 10 C0.66 9.01 1.32 8.02 2 7 C2.33218192 3.99740483 2.33218192 3.99740483 0.5 2.3125 C0.005 1.879375 -0.49 1.44625 -1 1 C-0.67 0.67 -0.34 0.34 0 0 Z " fill="#29BAD4" transform="translate(81,63)"/>
<path d="M0 0 C1.98 0 3.96 0 6 0 C6.5625 1.9375 6.5625 1.9375 7 4 C6 5 6 5 2.9375 5.0625 C1.4834375 5.0315625 1.4834375 5.0315625 0 5 C0 3.35 0 1.7 0 0 Z " fill="#1F292B" transform="translate(77,40)"/>
<path d="M0 0 C0.66 0 1.32 0 2 0 C2 0.66 2 1.32 2 2 C3.32 2.66 4.64 3.32 6 4 C5.67 5.65 5.34 7.3 5 9 C3.35 9.33 1.7 9.66 0 10 C0.66 9.01 1.32 8.02 2 7 C2.33218192 3.99740483 2.33218192 3.99740483 0.5 2.3125 C0.005 1.879375 -0.49 1.44625 -1 1 C-0.67 0.67 -0.34 0.34 0 0 Z " fill="#29BAD4" transform="translate(81,37)"/>
<path d="M0 0 C0.33 0.66 0.66 1.32 1 2 C3.97 2 6.94 2 10 2 C10 2.66 10 3.32 10 4 C6.04 4 2.08 4 -2 4 C-2 3.01 -2 2.02 -2 1 C-1.34 0.67 -0.68 0.34 0 0 Z " fill="#29C2DD" transform="translate(108,70)"/>
<path d="M0 0 C2.97 0.495 2.97 0.495 6 1 C5.67 2.32 5.34 3.64 5 5 C3.35 5 1.7 5 0 5 C0 3.35 0 1.7 0 0 Z " fill="#1F2A2C" transform="translate(77,58)"/>
<path d="M0 0 C2.97 0.495 2.97 0.495 6 1 C5.67 2.32 5.34 3.64 5 5 C3.35 5 1.7 5 0 5 C0 3.35 0 1.7 0 0 Z " fill="#1F2A2C" transform="translate(77,32)"/>
<path d="M0 0 C0.33 0.66 0.66 1.32 1 2 C3.64 2 6.28 2 9 2 C9 2.66 9 3.32 9 4 C5.04 4 1.08 4 -3 4 C-2.01 2.68 -1.02 1.36 0 0 Z " fill="#F1A36F" transform="translate(141,44)"/>
<path d="M0 0 C0.66 0 1.32 0 2 0 C2.33 2.31 2.66 4.62 3 7 C1.68 7 0.36 7 -1 7 C-0.67 4.69 -0.34 2.38 0 0 Z " fill="#203A3E" transform="translate(95,60)"/>
<path d="M0 0 C0.78375 0.04125 1.5675 0.0825 2.375 0.125 C1.4159375 0.7746875 1.4159375 0.7746875 0.4375 1.4375 C-1.89246003 3.03739177 -1.89246003 3.03739177 -2.625 6.125 C-3.615 6.125 -4.605 6.125 -5.625 6.125 C-4.86443086 2.32215429 -4.27658992 0.20364714 0 0 Z " fill="#BA815A" transform="translate(143.625,54.875)"/>
<path d="M0 0 C0.66 0 1.32 0 2 0 C2.33 2.31 2.66 4.62 3 7 C1.68 7 0.36 7 -1 7 C-0.67 4.69 -0.34 2.38 0 0 Z " fill="#203A3E" transform="translate(95,34)"/>
<path d="M0 0 C0.78375 0.04125 1.5675 0.0825 2.375 0.125 C1.4159375 0.7746875 1.4159375 0.7746875 0.4375 1.4375 C-1.89246003 3.03739177 -1.89246003 3.03739177 -2.625 6.125 C-3.615 6.125 -4.605 6.125 -5.625 6.125 C-4.86443086 2.32215429 -4.27658992 0.20364714 0 0 Z " fill="#C3865D" transform="translate(143.625,28.875)"/>
</svg>
